<svg xmlns="http://www.w3.org/2000/svg" width="272.106" height="232.952" viewBox="0 0 272.106 232.952">
  <g id="MULTIQOS_ICON" data-name="MULTIQOS ICON" transform="translate(0)" opacity="0.5">
    <g id="Group_29659" data-name="Group 29659" transform="translate(0 0)">
      <path id="Path_34480" data-name="Path 34480" d="M166.389,64.9V213.695H137.139l-.058-96.03L94.974,186.3H91.615L49.623,117.665v96.03H20.2V64.9H50.492l42.86,70.256L135.981,64.9h30.408Z" transform="translate(-20.2 -64.9)" fill="#474747"/>
    </g>
    <g id="Group_29660" data-name="Group 29660" transform="translate(116.939 70.777)">
      <path id="Path_34481" data-name="Path 34481" d="M377.266,264.77q-.087,28.931-18.476,50.1l15.291,15.986-20.967,18.418-16.16-16.912a75.311,75.311,0,0,1-37.59,9.557q-32.232-.087-54.792-22.589-22.589-22.5-22.473-55.023.087-32.493,22.762-54.908,22.675-22.328,54.908-22.3,32.232.087,54.908,22.589Q377.353,232.277,377.266,264.77ZM299.48,313.248a55.66,55.66,0,0,0,16.681-2.606L291.6,284.926l20.967-18.418,26.064,27.28a48.637,48.637,0,0,0,9.151-29.076c.058-14.19-4.576-25.89-13.785-35.1s-20.677-13.9-34.346-13.9q-20.5-.087-34.4,13.727c-9.267,9.209-13.959,20.851-13.959,35.041-.058,14.016,4.576,25.658,13.785,34.925Q278.977,313.132,299.48,313.248Z" transform="translate(-222.099 -187.099)" fill="#474747"/>
    </g>
    <g id="Group_29661" data-name="Group 29661" transform="translate(29.423 52.765)" opacity="0.72">
      <path id="Path_34482" data-name="Path 34482" d="M158.574,156v83.462H141.083V184.381l-24.732,40.37h-3.359l-24.616-40.37.29,55.081H71.058L71,156H89.187l25.658,39.443L140.387,156Z" transform="translate(-71 -156)" fill="#fff"/>
    </g>
    <g id="Group_29662" data-name="Group 29662" transform="translate(174.222 144.741)">
      <path id="Path_34483" data-name="Path 34483" d="M340.345,361.541,321,341.211,348.975,314.8l19.345,20.33Z" transform="translate(-321 -314.8)" fill="#474747"/>
    </g>
  </g>
</svg>
