<svg id="Layer_2" data-name="Layer 2" xmlns="http://www.w3.org/2000/svg" width="20" height="20" viewBox="0 0 20 20">
  <g id="Layer_1" data-name="Layer 1">
    <rect id="Rectangle_11043" data-name="Rectangle 11043" width="20" height="20" rx="4" fill="#fff"/>
    <path id="Path_34542" data-name="Path 34542" d="M6.46,16.572V9.27h3.586a2.773,2.773,0,0,1,1.129.226,1.652,1.652,0,0,1,1.016,1.349,2.035,2.035,0,0,1-.085,1,1.37,1.37,0,0,1-.642.706l-.141.078h.064a1.582,1.582,0,0,1,1.016,1.25,2.2,2.2,0,0,1-.176,1.412,2.033,2.033,0,0,1-1.56,1.158,5.538,5.538,0,0,1-.932.078H6.46ZM8.147,15.3H9.721a2.561,2.561,0,0,0,.466-.049.819.819,0,0,0,.706-.664,1.5,1.5,0,0,0,0-.41.77.77,0,0,0-.536-.706,1.594,1.594,0,0,0-.529-.092H8.147Zm0-3.157H9.735a1.453,1.453,0,0,0,.706-.155.586.586,0,0,0,.3-.381,1.116,1.116,0,0,0,0-.438.607.607,0,0,0-.466-.544,2.737,2.737,0,0,0-.706-.092H8.161Z" transform="translate(-2.168 -2.922)"/>
    <path id="Path_34543" data-name="Path 34543" d="M20.922,14.819H17.111v.226a1.413,1.413,0,0,0,.12.424,1.115,1.115,0,0,0,.84.621,1.573,1.573,0,0,0,.635,0,1,1,0,0,0,.706-.53.071.071,0,0,1,.071-.042h1.383a.307.307,0,0,1-.049.2,1.857,1.857,0,0,1-.416.706,2.35,2.35,0,0,1-1.475.777,3.2,3.2,0,0,1-1.362-.071,2.654,2.654,0,0,1-1.214-.706,2.055,2.055,0,0,1-.508-1.017,3.935,3.935,0,0,1,.085-2.034,2.28,2.28,0,0,1,1.885-1.652,3.012,3.012,0,0,1,1.729.169,2.189,2.189,0,0,1,1.129,1.088,2.572,2.572,0,0,1,.24,1.038v.784C20.929,14.791,20.929,14.805,20.922,14.819Zm-1.412-.9v-.148a1.045,1.045,0,0,0-.663-.847,1.34,1.34,0,0,0-.614-.085,1.016,1.016,0,0,0-.925.636,2.649,2.649,0,0,0-.113.332,1.238,1.238,0,0,0,0,.134Z" transform="translate(-5.22 -3.597)"/>
    <path id="Path_34544" data-name="Path 34544" d="M17.31,10.537V9.69h2.936v.84Z" transform="translate(-5.599 -3.339)"/>
  </g>
</svg>
