<svg xmlns="http://www.w3.org/2000/svg" width="30" height="30" viewBox="0 0 30 30">
  <g id="Group_29801" data-name="Group 29801" transform="translate(19123 -20340)">
    <rect id="Rectangle_11036" data-name="Rectangle 11036" width="30" height="30" transform="translate(-19123 20340)" fill="none"/>
    <path id="akar-icons_dribbble-fill" d="M9.5,0A9.5,9.5,0,1,0,19,9.5,9.5,9.5,0,0,0,9.5,0Zm6.275,4.379a8.076,8.076,0,0,1,1.834,5.049,19.149,19.149,0,0,0-5.646-.257c-.063-.135-.114-.279-.176-.423q-.252-.594-.535-1.175a10.853,10.853,0,0,0,4.523-3.194ZM9.5,1.4a8.1,8.1,0,0,1,5.379,2.039,9.2,9.2,0,0,1-4.255,2.926,43.84,43.84,0,0,0-3.03-4.75A8.252,8.252,0,0,1,9.5,1.4Zm-3.452.762A51.438,51.438,0,0,1,9.057,6.852a30.423,30.423,0,0,1-7.5.99A8.155,8.155,0,0,1,6.048,2.164ZM1.381,9.51V9.263A29.651,29.651,0,0,0,9.717,8.109c.237.454.453.917.659,1.381l-.319.093A12.9,12.9,0,0,0,3.462,14.93,8.1,8.1,0,0,1,1.381,9.51ZM9.5,17.619a8.059,8.059,0,0,1-4.976-1.71,11.135,11.135,0,0,1,6.367-5.07c.021-.01.032-.01.051-.021a33.586,33.586,0,0,1,1.731,6.151A7.977,7.977,0,0,1,9.5,17.619Zm4.524-1.391a34.9,34.9,0,0,0-1.577-5.781A11.861,11.861,0,0,1,17.5,10.8,8.049,8.049,0,0,1,14.024,16.228Z" transform="translate(-19117 20346)" fill="#fff"/>
  </g>
</svg>
