<svg xmlns="http://www.w3.org/2000/svg" width="54.001" height="53.971" viewBox="0 0 54.001 53.971">
  <g id="Group_14" data-name="Group 14" transform="translate(0)">
    <g id="Group_1" data-name="Group 1" transform="translate(0 0)">
      <rect id="Rectangle_2" data-name="Rectangle 2" width="7.639" height="7.56" transform="translate(0 0)" fill="#c5c5c5"/>
      <rect id="Rectangle_4" data-name="Rectangle 4" width="7.558" height="7.56" transform="translate(7.561 7.481)" fill="#c5c5c5"/>
      <rect id="Rectangle_6" data-name="Rectangle 6" width="7.639" height="7.559" transform="translate(0 14.963)" fill="#c5c5c5"/>
      <rect id="Rectangle_8" data-name="Rectangle 8" width="7.558" height="7.56" transform="translate(15.041 0)" fill="#c5c5c5"/>
      <path id="Path_9" data-name="Path 9" d="M79.391,417.065V417a26.12,26.12,0,0,1,.231-3.5h8.192V406.02H95.3v-7.487h7.482v-8.2a26.6,26.6,0,0,1,3.5-.231h.062a26.959,26.959,0,1,1-26.952,26.957Zm15.752,3.744h0v-7.3h-7.3v7.3H83.31v4.529h4.536v-4.529Zm18.39,13.279h0A17.023,17.023,0,1,0,96.5,417.062a17.023,17.023,0,0,0,17.034,17.027Z" transform="translate(-79.309 -390.053)" fill="#c5c5c5" fill-rule="evenodd"/>
      <path id="Path_10" data-name="Path 10" d="M162.01,462.649v-12.94a5.32,5.32,0,0,1,.42-2.075,5.475,5.475,0,0,1,1.159-1.731,5.62,5.62,0,0,1,1.728-1.159,5.357,5.357,0,0,1,2.079-.418h.064a5.344,5.344,0,0,1,3.583,1.4,5.241,5.241,0,0,1,1.675-1.037,5.139,5.139,0,0,1,1.9-.36h.069a5.349,5.349,0,0,1,2.072.418,5.551,5.551,0,0,1,1.729,1.16,5.391,5.391,0,0,1,1.159,1.731,5.324,5.324,0,0,1,.425,2.075v12.94h-3.6V449.742a1.738,1.738,0,0,0-.144-.7,1.958,1.958,0,0,0-.393-.572,1.853,1.853,0,0,0-.574-.386,1.81,1.81,0,0,0-1.983.386,1.823,1.823,0,0,0-.526,1.276V462.65H169.23V449.742a1.83,1.83,0,0,0-.138-.7,1.742,1.742,0,0,0-.382-.572,1.849,1.849,0,0,0-.574-.386,1.824,1.824,0,0,0-.707-.138,1.863,1.863,0,0,0-.707.138,1.808,1.808,0,0,0-1.1,1.662v12.908Z" transform="translate(-135.66 -427.034)" fill="#c5c5c5" fill-rule="evenodd"/>
    </g>
  </g>
</svg>
