<svg xmlns="http://www.w3.org/2000/svg" width="30" height="30" viewBox="0 0 30 30">
  <g id="Group_29811" data-name="Group 29811" transform="translate(-1488 -12984)">
    <rect id="Rectangle_11035" data-name="Rectangle 11035" width="30" height="30" transform="translate(1488 12984)" fill="none"/>
    <path id="saaa" d="M121.874,118.606a3.17,3.17,0,1,0,3.17,3.17A3.177,3.177,0,0,0,121.874,118.606Zm9.508,3.17c0-1.313.012-2.614-.062-3.924a5.26,5.26,0,0,0-5.52-5.52c-1.313-.074-2.614-.062-3.924-.062s-2.614-.012-3.924.062a5.26,5.26,0,0,0-5.52,5.52c-.074,1.313-.062,2.614-.062,3.924s-.012,2.614.062,3.924a5.26,5.26,0,0,0,5.52,5.52c1.313.074,2.614.062,3.924.062s2.614.012,3.924-.062a5.26,5.26,0,0,0,5.52-5.52c.076-1.31.062-2.611.062-3.924Zm-9.508,4.878a4.878,4.878,0,1,1,4.878-4.878A4.871,4.871,0,0,1,121.874,126.654Zm5.077-8.816a1.138,1.138,0,1,1,.436-.086,1.138,1.138,0,0,1-.436.086Z" transform="translate(1380.629 12877.73)" fill="#fff"/>
  </g>
</svg>
