<svg xmlns="http://www.w3.org/2000/svg" width="167.963" height="222.981" viewBox="0 0 167.963 222.981">
  <g id="Group_13611" data-name="Group 13611" transform="translate(-188.037 -2903.019)">
    <text id="Startups" transform="translate(189 3116)" fill="#fff" font-size="40" font-family="Gilroy-Light, Gilroy â˜" font-weight="300" letter-spacing="0.02em"><tspan x="0" y="0">Startups</tspan></text>
    <g id="ecology" transform="translate(191.037 2906.019)">
      <path id="Path_33473" data-name="Path 33473" d="M185.57,4.745A4.75,4.75,0,0,0,180.82,0a60.74,60.74,0,0,0-55.9,37.133A60.743,60.743,0,0,0,69.012,0a4.745,4.745,0,0,0-4.745,4.745,60.733,60.733,0,0,0,55.907,60.467V96.229a4.745,4.745,0,1,0,9.49,0V65.212A60.733,60.733,0,0,0,185.57,4.745ZM74,9.73a51.25,51.25,0,0,1,45.935,45.935A51.257,51.257,0,0,1,74,9.73ZM129.9,55.666A51.251,51.251,0,0,1,175.839,9.731,51.258,51.258,0,0,1,129.9,55.666Z" transform="translate(-43.937)" fill="#fff" stroke="#000" stroke-width="6"/>
      <path id="Path_33474" data-name="Path 33474" d="M51.3,205.256A15.516,15.516,0,0,0,29.82,204.8V185.735A25.1,25.1,0,0,0,4.75,160.666H4.745A4.745,4.745,0,0,0,0,165.411V226.4a4.745,4.745,0,0,0,1.39,3.355l29.1,29.105v8.2A4.745,4.745,0,0,0,35.24,271.8H70.817a4.745,4.745,0,0,0,4.745-4.745V239.9a24.911,24.911,0,0,0-7.344-17.731Zm14.771,57.058H39.985V256.9a4.745,4.745,0,0,0-1.39-3.355L9.49,224.435V170.9c8.966,2.878,10.84,11.185,10.84,14.833v30.5a4.744,4.744,0,0,0,1.39,3.355l20.33,20.33a4.745,4.745,0,0,0,6.71-6.71L36.054,220.5a6.037,6.037,0,0,1,8.537-8.537l16.917,16.917a15.481,15.481,0,0,1,4.564,11.02v22.41Z" transform="translate(0 -109.842)" fill="#fff" stroke="#000" stroke-width="6"/>
      <path id="Path_33475" data-name="Path 33475" d="M343.95,160.667h-.005a25.1,25.1,0,0,0-25.069,25.07V204.8a15.516,15.516,0,0,0-21.481.457l-16.917,16.917a24.91,24.91,0,0,0-7.344,17.731V267.06a4.745,4.745,0,0,0,4.745,4.745h35.577a4.745,4.745,0,0,0,4.745-4.745v-8.2l29.1-29.1a4.746,4.746,0,0,0,1.39-3.355V165.412A4.745,4.745,0,0,0,343.95,160.667Zm-4.745,63.768-29.1,29.1a4.745,4.745,0,0,0-1.39,3.355v5.42H282.624v-22.41a15.481,15.481,0,0,1,4.564-11.02L304.1,211.968a6.036,6.036,0,0,1,8.537,8.537l-12.706,12.706a4.745,4.745,0,0,0,6.71,6.71l20.33-20.33a4.745,4.745,0,0,0,1.39-3.355v-30.5c0-3.647,1.874-11.955,10.84-14.833v53.532Z" transform="translate(-186.732 -109.843)" fill="#fff" stroke="#000" stroke-width="6"/>
    </g>
  </g>
</svg>
