<svg xmlns="http://www.w3.org/2000/svg" width="30" height="30" viewBox="0 0 30 30">
  <g id="Group_29800" data-name="Group 29800" transform="translate(19239 -20330)">
    <rect id="Rectangle_11035" data-name="Rectangle 11035" width="30" height="30" transform="translate(-19239 20330)" fill="none"/>
    <path id="Path_33676" data-name="Path 33676" d="M73,12.828a7.784,7.784,0,0,1-2.239.614,3.909,3.909,0,0,0,1.714-2.156A7.806,7.806,0,0,1,70,12.231a3.9,3.9,0,0,0-6.642,3.555,11.065,11.065,0,0,1-8.035-4.073,3.9,3.9,0,0,0,1.206,5.2,3.883,3.883,0,0,1-1.766-.488v.049A3.9,3.9,0,0,0,57.89,20.3a3.9,3.9,0,0,1-1.76.066,3.9,3.9,0,0,0,3.641,2.707A7.859,7.859,0,0,1,54,24.689a11.085,11.085,0,0,0,17.065-9.339c0-.169,0-.338-.011-.5A7.937,7.937,0,0,0,73,12.828Z" transform="translate(-19287.5 20326)" fill="#fff"/>
  </g>
</svg>
